<svg width="27" height="32" viewBox="0 0 27 32" fill="none" xmlns="http://www.w3.org/2000/svg">
<path d="M26.001 18.2292C26.0599 19.18 25.418 19.3069 25.3272 19.9014C25.2835 20.1869 25.5929 20.9605 25.3663 21.3219C25.1397 21.6832 24.8794 21.8729 24.4382 21.9693C23.997 22.0657 23.5067 21.9276 23.2663 21.5737C23.09 21.315 23.0543 21.1042 23.0828 20.8001C23.1351 20.2385 23.3153 19.6869 23.6081 19.1919C23.9234 18.6589 24.3633 18.1956 24.6919 17.6694C25.1205 16.9822 25.3511 16.1918 25.3531 15.3995C25.3544 14.851 25.4432 14.2558 25.208 13.7521C25.0689 13.4542 24.8622 13.1868 24.625 12.9474C23.5829 11.8957 22.0082 11.41 20.9224 10.3969C20.0168 9.55239 19.5107 8.35648 19.5564 7.17052C18.8535 7.99018 18.6229 9.13385 18.9582 10.1308C19.1072 10.5736 19.3596 10.9877 19.4537 11.443C19.6604 12.4442 18.9621 13.5363 17.9114 13.8572C17.7962 13.8926 17.6723 13.9194 17.5537 13.8939C17.3357 13.8472 17.2059 13.6445 17.1165 13.4561C16.721 12.6246 16.6017 11.6849 16.7779 10.7918C16.8853 10.2495 17.0979 9.72528 17.1509 9.17615C17.288 7.75013 16.7548 6.19537 15.6418 5.19598C11.6762 1.63311 13.7411 0 13.7411 0C12.5553 0.337692 11.6583 1.32154 11.3317 2.42417C11.0051 3.5268 11.2005 4.72271 11.6981 5.76937C11.924 6.2445 12.2108 6.69663 12.3937 7.18731C12.6143 7.77998 12.6765 8.42178 12.5732 9.04119C12.5149 9.39257 12.395 9.7514 12.1254 10.0064C11.8392 10.2769 11.4258 10.3944 11.025 10.4753C10.6679 10.5474 10.2949 10.5984 9.93917 10.5195C9.53042 10.4287 9.18196 10.1706 8.93618 9.8565C8.6904 9.54245 8.53803 9.1749 8.41878 8.80425C8.19288 8.10212 8.07694 7.37015 8.07495 6.63755C8.07363 6.18169 8.11537 5.71465 7.96233 5.28118C7.76094 4.70903 6.55788 4.82968 6.33264 3.92544C6.33529 4.2849 6.35913 4.5747 6.54794 4.88938C6.83214 5.36452 7.32105 5.77248 7.35882 6.31416C7.39393 6.81728 7.02559 7.25634 6.73542 7.68358C5.8901 8.92676 5.59861 10.479 5.94177 11.9113C6.06698 12.433 6.27169 12.9386 6.35715 13.4673C6.41346 13.8155 6.41346 14.188 6.23724 14.5002C6.12462 14.6999 5.94774 14.8628 5.81723 15.0531C5.537 15.4611 4.79171 16.1551 5.72846 17.8859C5.86559 18.139 7.0607 20.2876 5.0885 20.7304C3.4959 21.088 2.95466 18.8517 2.77181 18.5053C1.9934 17.0339 0.895009 16.981 0 17.0376C0.944695 17.7167 1.266 18.8946 1.46408 19.9829C1.66216 21.0712 1.65553 22.1876 1.91191 23.2653C2.29615 24.8804 3.26867 26.3443 4.54659 27.511C4.65193 27.3717 4.75594 27.2312 4.86193 27.0919C5.91329 25.7106 6.97789 24.3387 7.98486 22.9289C8.25846 22.5458 8.31212 22.2379 7.99678 21.8803C7.90934 21.7808 7.86495 21.6496 7.78943 21.5402C7.11039 20.5532 7.21373 19.5967 7.84441 18.616C8.89775 16.9766 9.95242 15.3361 10.9183 13.6526C11.2794 13.0226 11.6769 12.9884 12.2698 13.216C12.3784 13.2577 12.4871 13.2987 12.5957 13.3404C14.285 13.8765 15.6683 14.8292 16.8674 16.0258C17.2834 16.4412 17.3589 16.8286 16.9224 17.3342C15.5444 18.93 14.1916 20.547 12.8872 22.1944C12.1313 23.1496 11.1528 23.2914 10.0154 23.0899C9.53771 23.0054 9.18461 22.96 8.85734 23.4805C8.00738 24.8325 7.14483 26.1777 6.27434 27.5185L6.27301 27.5172L4.92752 29.5919L6.45784 28.9202C7.63374 29.6242 8.9322 30.1603 10.2678 30.5639C10.4639 30.623 10.6639 30.6771 10.8666 30.7275C12.0353 29.0969 13.1721 27.521 13.6007 26.9637C13.8591 26.6279 13.8968 26.358 13.6252 25.993C13.0475 25.2162 13.3834 24.4494 13.8551 23.7703C14.8607 22.3219 15.9247 20.9083 16.9701 19.4835C17.5597 18.68 18.1599 17.8834 18.7554 17.0842C18.819 17.1122 18.882 17.1402 18.9456 17.1682C18.7574 17.5245 18.5819 17.8877 18.3778 18.2366C17.3172 20.0495 16.2453 21.8561 15.1873 23.6702C14.9647 24.052 14.7633 24.4519 15.1257 24.8711C15.614 25.437 16.3334 25.4351 16.8488 24.7778C17.8392 23.5141 18.7727 22.2124 19.7319 20.9276C20.3235 20.1347 20.8535 19.2994 21.565 18.5656C21.826 18.8249 21.6233 19.0022 21.5319 19.1564C20.2255 21.3772 18.9489 23.6129 17.5325 25.7778C16.9972 26.5956 16.3003 27.1373 15.2012 27.0235C14.8051 26.9824 14.7037 27.2156 14.554 27.4532C13.9876 28.3506 13.0879 29.7778 12.3175 31.0018L11.6769 31.9775L13.5848 31.1106C16.5613 31.23 19.8757 30.4165 22.8602 28.243C24.6429 26.9451 28.1282 22.5563 26.001 18.2292Z" fill="#DA3929"/>
<path d="M14.5798 15.8348C14.3082 15.6607 14.1625 15.9219 14.032 16.0911C13.5855 16.6725 13.1515 17.2621 12.7097 17.8461C11.9717 18.8212 11.231 19.7951 10.4036 20.8853C10.3632 20.9357 10.342 21.1092 10.55 21.2137C10.8103 21.3436 10.9329 21.1297 11.0495 20.9761C12.2068 19.4518 13.3596 17.9244 14.5103 16.3958C14.6401 16.2229 14.8508 16.0077 14.5798 15.8342V15.8348Z" fill="#DA3929"/>
<path d="M11.5926 21.4861C11.4317 21.6807 11.3442 21.8555 11.6125 22.0246C11.9219 22.0694 12.0286 21.8424 12.161 21.6795C13.3436 20.2255 14.5208 18.7677 15.6921 17.3063C15.8338 17.1296 16.1372 16.9113 15.8424 16.7005C15.4973 16.4536 15.3588 16.8317 15.2111 17.0109C14.3731 18.0264 13.5542 19.0557 12.7288 20.0806C12.3512 20.5495 11.9775 21.0215 11.5933 21.4861H11.5926Z" fill="#DA3929"/>
<path d="M11.8843 14.379C11.6239 14.2962 11.5345 14.5537 11.4358 14.7111C10.4235 16.318 9.42118 17.93 8.41089 19.5383C8.29827 19.718 8.17108 19.9002 8.43342 20.0345C8.68516 20.1633 8.82031 19.981 8.92564 19.8026C9.20653 19.3293 9.47417 18.8517 9.77428 18.3865C10.5282 17.2167 11.2231 16.0139 11.9253 14.8522C12.0042 14.6625 12.1301 14.4573 11.8843 14.379Z" fill="#DA3929"/>
<path d="M13.2595 15.0282C13.1237 14.9424 12.98 14.994 12.8846 15.1035C12.7673 15.2384 12.6653 15.3852 12.5659 15.5326C11.8445 16.5979 11.1303 17.6676 10.4023 18.7292C10.1008 19.1682 9.77491 19.5936 9.45294 20.0202C9.33303 20.1794 9.26413 20.3592 9.43439 20.4879C9.67421 20.6695 9.8067 20.4276 9.95245 20.3075C10.0194 20.2528 10.0478 20.1595 10.0982 20.0868C11.0979 18.6452 12.0989 17.2049 13.0986 15.7633C13.1873 15.6352 13.2715 15.5052 13.3576 15.3759C13.4166 15.2378 13.3854 15.1078 13.2589 15.0282H13.2595Z" fill="#DA3929"/>
</svg>
