<svg width="28" height="31" viewBox="0 0 28 31" fill="none" xmlns="http://www.w3.org/2000/svg">
<g filter="url(#filter0_d_37_3523)">
<path d="M15.0281 2.50073C16.1535 2.50259 16.7238 2.50855 17.2166 2.52322L17.4107 2.52956C17.6349 2.53753 17.8561 2.54753 18.1228 2.56003C19.1869 2.6092 19.9128 2.77753 20.5503 3.02503C21.2094 3.2792 21.7661 3.62253 22.3219 4.17837C22.8769 4.7342 23.2203 5.29253 23.4753 5.95003C23.7219 6.5867 23.8903 7.31337 23.9403 8.37753C23.9522 8.6442 23.9618 8.8654 23.9697 9.08964L23.976 9.28373C23.9906 9.77647 23.9973 10.3469 23.9994 11.4723L24.0002 12.2179C24.0003 12.309 24.0003 12.403 24.0003 12.5L24.0002 12.7821L23.9996 13.5278C23.9977 14.6532 23.9918 15.2236 23.9771 15.7163L23.9707 15.9104C23.9628 16.1347 23.9528 16.3559 23.9403 16.6225C23.8911 17.6867 23.7219 18.4125 23.4753 19.05C23.2211 19.7092 22.8769 20.2659 22.3219 20.8217C21.7661 21.3767 21.2069 21.72 20.5503 21.975C19.9128 22.2217 19.1869 22.39 18.1228 22.44C17.8561 22.4519 17.6349 22.4616 17.4107 22.4694L17.2166 22.4757C16.7238 22.4904 16.1535 22.497 15.0281 22.4992L14.2824 22.5C14.1913 22.5 14.0973 22.5 14.0003 22.5H13.7182L12.9725 22.4993C11.8471 22.4975 11.2767 22.4915 10.784 22.4768L10.5899 22.4705C10.3656 22.4625 10.1444 22.4525 9.87778 22.44C8.81361 22.3909 8.08861 22.2217 7.45028 21.975C6.79194 21.7209 6.23444 21.3767 5.67861 20.8217C5.12278 20.2659 4.78028 19.7067 4.52528 19.05C4.27778 18.4125 4.11028 17.6867 4.06028 16.6225C4.0484 16.3559 4.03871 16.1347 4.03086 15.9104L4.02457 15.7163C4.00994 15.2236 4.00327 14.6532 4.00111 13.5278L4.00098 11.4723C4.00284 10.3469 4.00879 9.77647 4.02346 9.28373L4.02981 9.08964C4.03778 8.8654 4.04778 8.6442 4.06028 8.37753C4.10944 7.31253 4.27778 6.58753 4.52528 5.95003C4.77944 5.2917 5.12278 4.7342 5.67861 4.17837C6.23444 3.62253 6.79278 3.28003 7.45028 3.02503C8.08778 2.77753 8.81278 2.61003 9.87778 2.56003C10.1444 2.54816 10.3656 2.53847 10.5899 2.53062L10.784 2.52433C11.2767 2.50969 11.8471 2.50302 12.9725 2.50086L15.0281 2.50073ZM14.0003 7.50003C11.2374 7.50003 9.00028 9.73956 9.00028 12.5C9.00028 15.2629 11.2398 17.5 14.0003 17.5C16.7632 17.5 19.0003 15.2605 19.0003 12.5C19.0003 9.73713 16.7607 7.50003 14.0003 7.50003ZM14.0003 9.50003C15.6572 9.50003 17.0003 10.8427 17.0003 12.5C17.0003 14.1569 15.6576 15.5 14.0003 15.5C12.3434 15.5 11.0003 14.1574 11.0003 12.5C11.0003 10.8431 12.3429 9.50003 14.0003 9.50003ZM19.2503 6.00003C18.561 6.00003 18.0003 6.55994 18.0003 7.24918C18.0003 7.93843 18.5602 8.4992 19.2503 8.4992C19.9395 8.4992 20.5003 7.9393 20.5003 7.24918C20.5003 6.55994 19.9386 5.99917 19.2503 6.00003Z" fill="#F0EBE1"/>
</g>
<defs>
<filter id="filter0_d_37_3523" x="-2" y="0.5" width="32" height="32" filterUnits="userSpaceOnUse" color-interpolation-filters="sRGB">
<feFlood flood-opacity="0" result="BackgroundImageFix"/>
<feColorMatrix in="SourceAlpha" type="matrix" values="0 0 0 0 0 0 0 0 0 0 0 0 0 0 0 0 0 0 127 0" result="hardAlpha"/>
<feOffset dy="4"/>
<feGaussianBlur stdDeviation="2"/>
<feComposite in2="hardAlpha" operator="out"/>
<feColorMatrix type="matrix" values="0 0 0 0 0 0 0 0 0 0 0 0 0 0 0 0 0 0 0.25 0"/>
<feBlend mode="normal" in2="BackgroundImageFix" result="effect1_dropShadow_37_3523"/>
<feBlend mode="normal" in="SourceGraphic" in2="effect1_dropShadow_37_3523" result="shape"/>
</filter>
</defs>
</svg>
